<svg width="45" height="45" viewBox="0 0 45 45" fill="none" xmlns="http://www.w3.org/2000/svg">
<rect width="45" height="45" rx="22.5" fill="#E7E7E7"/>
<path d="M18.6964 30.2953C18.6964 30.4047 18.5758 30.4922 18.4238 30.4922C18.2508 30.5086 18.1302 30.4211 18.1302 30.2953C18.1302 30.1859 18.2508 30.0984 18.4028 30.0984C18.5601 30.082 18.6964 30.1695 18.6964 30.2953ZM17.0661 30.0492C17.0294 30.1586 17.1343 30.2844 17.2915 30.3172C17.4278 30.3719 17.5851 30.3172 17.6165 30.2078C17.648 30.0984 17.5484 29.9727 17.3911 29.9234C17.2548 29.8852 17.1028 29.9398 17.0661 30.0492ZM19.3831 29.9563C19.231 29.9945 19.1262 30.0984 19.1419 30.2242C19.1577 30.3336 19.294 30.4047 19.4512 30.3664C19.6032 30.3281 19.7081 30.2242 19.6923 30.1148C19.6766 30.0109 19.5351 29.9398 19.3831 29.9563ZM22.8323 9C15.5617 9 10 14.7586 10 22.3438C10 28.4086 13.6589 33.5984 18.8851 35.425C19.556 35.5508 19.7919 35.1188 19.7919 34.7633C19.7919 34.4242 19.7762 32.5539 19.7762 31.4055C19.7762 31.4055 16.1069 32.2258 15.3363 29.7758C15.3363 29.7758 14.7387 28.1844 13.879 27.7742C13.879 27.7742 12.6786 26.9156 13.9629 26.932C13.9629 26.932 15.2681 27.0414 15.9863 28.343C17.1343 30.4539 19.0581 29.8469 19.8077 29.4859C19.9282 28.6109 20.269 28.0039 20.6464 27.643C17.7161 27.3039 14.7597 26.8609 14.7597 21.6C14.7597 20.0961 15.1581 19.3414 15.9968 18.3789C15.8605 18.0234 15.4149 16.5578 16.1331 14.6656C17.2286 14.3102 19.75 16.1422 19.75 16.1422C20.7984 15.8359 21.9254 15.6773 23.0419 15.6773C24.1585 15.6773 25.2855 15.8359 26.3339 16.1422C26.3339 16.1422 28.8552 14.3047 29.9508 14.6656C30.669 16.5633 30.2234 18.0234 30.0871 18.3789C30.9258 19.3469 31.4395 20.1016 31.4395 21.6C31.4395 26.8773 28.352 27.2984 25.4218 27.643C25.904 28.075 26.3129 28.8953 26.3129 30.1805C26.3129 32.0234 26.2972 34.3039 26.2972 34.7523C26.2972 35.1078 26.5383 35.5398 27.204 35.4141C32.446 33.5984 36 28.4086 36 22.3438C36 14.7586 30.1028 9 22.8323 9ZM15.0952 27.8617C15.027 27.9164 15.0427 28.0422 15.1319 28.1461C15.2157 28.2336 15.3363 28.2719 15.4044 28.2008C15.4726 28.1461 15.4569 28.0203 15.3677 27.9164C15.2839 27.8289 15.1633 27.7906 15.0952 27.8617ZM14.529 27.4188C14.4923 27.4898 14.5448 27.5773 14.6496 27.632C14.7335 27.6867 14.8383 27.6703 14.875 27.5938C14.9117 27.5227 14.8593 27.4352 14.7544 27.3805C14.6496 27.3477 14.5657 27.3641 14.529 27.4188ZM16.2274 29.3656C16.1435 29.4367 16.175 29.6008 16.2956 29.7047C16.4161 29.8305 16.5681 29.8469 16.6363 29.7594C16.7044 29.6883 16.673 29.5242 16.5681 29.4203C16.4528 29.2945 16.2956 29.2781 16.2274 29.3656ZM15.6298 28.5617C15.546 28.6164 15.546 28.7586 15.6298 28.8844C15.7137 29.0102 15.8552 29.0648 15.9234 29.0102C16.0073 28.9391 16.0073 28.7969 15.9234 28.6711C15.85 28.5453 15.7137 28.4906 15.6298 28.5617Z" fill="#838383"/>
</svg>
