<svg width="45" height="45" viewBox="0 0 45 45" fill="none" xmlns="http://www.w3.org/2000/svg">
<rect width="45" height="45" rx="22.5" fill="#E7E7E7"/>
<path d="M9 22.4998C9 28.0277 12.3242 32.7766 17.0809 34.8646C17.0429 33.9219 17.0741 32.7903 17.3159 31.7646C17.5754 30.6687 19.0529 24.4086 19.0529 24.4086C19.0529 24.4086 18.6217 23.5466 18.6217 22.2727C18.6217 20.2721 19.7812 18.778 21.2253 18.778C22.4532 18.778 23.0465 19.7003 23.0465 20.8047C23.0465 22.0391 22.2592 23.8855 21.8543 25.5956C21.516 27.0276 22.5723 28.1956 23.985 28.1956C26.5429 28.1956 28.2656 24.9105 28.2656 21.0182C28.2656 18.0594 26.2728 15.8448 22.6481 15.8448C18.553 15.8448 16.0018 18.8987 16.0018 22.3099C16.0018 23.4861 16.3486 24.3154 16.8918 24.9577C17.1415 25.2527 17.1762 25.3714 17.0858 25.7101C17.0211 25.9585 16.8724 26.5565 16.8108 26.7935C16.7209 27.1354 16.4438 27.2576 16.1348 27.1314C14.2486 26.3614 13.3702 24.2958 13.3702 21.9739C13.3702 18.139 16.6045 13.5407 23.0186 13.5407C28.1729 13.5407 31.5653 17.2704 31.5653 21.274C31.5653 26.5698 28.621 30.5261 24.281 30.5261C22.8235 30.5261 21.4525 29.7383 20.9829 28.8434C20.9829 28.8434 20.1992 31.9538 20.0331 32.5544C19.7469 33.5953 19.1867 34.6356 18.6744 35.4464C19.9166 35.8137 21.2052 36.0001 22.5005 36C29.9554 36 36 29.9559 36 22.4998C36 15.0441 29.9554 9 22.5005 9C15.0448 9 9 15.0441 9 22.4998Z" fill="#838383"/>
</svg>
