<svg width="68" height="12" viewBox="0 0 68 12" fill="none" xmlns="http://www.w3.org/2000/svg">
<path d="M6.43247 1.49808C6.23978 1.16601 5.76022 1.166 5.56753 1.49808L4.21051 3.83673C4.11532 4.00078 3.95079 4.11272 3.76326 4.14105L1.22011 4.52516C0.792965 4.58967 0.643135 5.12898 0.975788 5.40458L2.87033 6.97419C3.0457 7.11948 3.12816 7.34867 3.08556 7.57238L2.58998 10.175C2.51164 10.5864 2.94353 10.906 3.31411 10.7109L5.70881 9.44999C5.89107 9.35402 6.10892 9.35402 6.29119 9.44999L8.68589 10.7109C9.05647 10.906 9.48836 10.5864 9.41002 10.175L8.91444 7.57238C8.87183 7.34867 8.9543 7.11948 9.12967 6.97419L11.0242 5.40458C11.3569 5.12898 11.207 4.58967 10.7799 4.52516L8.23674 4.14105C8.0492 4.11272 7.88468 4.00078 7.78949 3.83674L6.43247 1.49808Z" fill="#EEF237"/>
<path d="M20.4325 1.49808C20.2398 1.16601 19.7602 1.166 19.5675 1.49808L18.2105 3.83673C18.1153 4.00078 17.9508 4.11272 17.7633 4.14105L15.2201 4.52516C14.793 4.58967 14.6431 5.12898 14.9758 5.40458L16.8703 6.97419C17.0457 7.11948 17.1282 7.34867 17.0856 7.57238L16.59 10.175C16.5116 10.5864 16.9435 10.906 17.3141 10.7109L19.7088 9.44999C19.8911 9.35402 20.1089 9.35402 20.2912 9.44999L22.6859 10.7109C23.0565 10.906 23.4884 10.5864 23.41 10.175L22.9144 7.57238C22.8718 7.34867 22.9543 7.11948 23.1297 6.97419L25.0242 5.40458C25.3569 5.12898 25.207 4.58967 24.7799 4.52516L22.2367 4.14105C22.0492 4.11272 21.8847 4.00078 21.7895 3.83674L20.4325 1.49808Z" fill="#EEF237"/>
<path d="M34.4325 1.49808C34.2398 1.16601 33.7602 1.166 33.5675 1.49808L32.2105 3.83673C32.1153 4.00078 31.9508 4.11272 31.7633 4.14105L29.2201 4.52516C28.793 4.58967 28.6431 5.12898 28.9758 5.40458L30.8703 6.97419C31.0457 7.11948 31.1282 7.34867 31.0856 7.57238L30.59 10.175C30.5116 10.5864 30.9435 10.906 31.3141 10.7109L33.7088 9.44999C33.8911 9.35402 34.1089 9.35402 34.2912 9.44999L36.6859 10.7109C37.0565 10.906 37.4884 10.5864 37.41 10.175L36.9144 7.57238C36.8718 7.34867 36.9543 7.11948 37.1297 6.97419L39.0242 5.40458C39.3569 5.12898 39.207 4.58967 38.7799 4.52516L36.2367 4.14105C36.0492 4.11272 35.8847 4.00078 35.7895 3.83674L34.4325 1.49808Z" fill="#EEF237"/>
<path d="M48.4325 1.49808C48.2398 1.16601 47.7602 1.166 47.5675 1.49808L46.2105 3.83673C46.1153 4.00078 45.9508 4.11272 45.7633 4.14105L43.2201 4.52516C42.793 4.58967 42.6431 5.12898 42.9758 5.40458L44.8703 6.97419C45.0457 7.11948 45.1282 7.34867 45.0856 7.57238L44.59 10.175C44.5116 10.5864 44.9435 10.906 45.3141 10.7109L47.7088 9.44999C47.8911 9.35402 48.1089 9.35402 48.2912 9.44999L50.6859 10.7109C51.0565 10.906 51.4884 10.5864 51.41 10.175L50.9144 7.57238C50.8718 7.34867 50.9543 7.11948 51.1297 6.97419L53.0242 5.40458C53.3569 5.12898 53.207 4.58967 52.7799 4.52516L50.2367 4.14105C50.0492 4.11272 49.8847 4.00078 49.7895 3.83674L48.4325 1.49808Z" fill="#EEF237"/>
<path d="M62.4325 1.49808C62.2398 1.16601 61.7602 1.166 61.5675 1.49808L60.2105 3.83673C60.1153 4.00078 59.9508 4.11272 59.7633 4.14105L57.2201 4.52516C56.793 4.58967 56.6431 5.12898 56.9758 5.40458L58.8703 6.97419C59.0457 7.11948 59.1282 7.34867 59.0856 7.57238L58.59 10.175C58.5116 10.5864 58.9435 10.906 59.3141 10.7109L61.7088 9.44999C61.8911 9.35402 62.1089 9.35402 62.2912 9.44999L64.6859 10.7109C65.0565 10.906 65.4884 10.5864 65.41 10.175L64.9144 7.57238C64.8718 7.34867 64.9543 7.11948 65.1297 6.97419L67.0242 5.40458C67.3569 5.12898 67.207 4.58967 66.7799 4.52516L64.2367 4.14105C64.0492 4.11272 63.8847 4.00078 63.7895 3.83674L62.4325 1.49808Z" fill="#EEF237"/>
</svg>
