<svg width="75" height="75" viewBox="0 0 75 75" fill="none" xmlns="http://www.w3.org/2000/svg">
<circle cx="37.5" cy="37.5" r="37.5" fill="#DDFDB4"/>
<g clip-path="url(#clip0_3_243)">
<path d="M37.5 20C33.4021 19.9942 29.4691 21.6129 26.5625 24.5015C26.3115 24.7582 26.1728 25.1041 26.1768 25.4631C26.1809 25.8221 26.3273 26.1648 26.584 26.4158C26.8407 26.6667 27.1866 26.8055 27.5456 26.8014C27.9046 26.7974 28.2473 26.6509 28.4983 26.3942C29.6805 25.2141 31.0845 24.2795 32.6294 23.6442C34.1743 23.0088 35.8296 22.6853 37.5 22.6923C41.0242 22.6923 44.1904 24.0923 46.5031 26.3942C46.6273 26.5212 46.7754 26.6225 46.9388 26.6923C47.1023 26.7621 47.2778 26.799 47.4555 26.801C47.6332 26.8029 47.8095 26.7698 47.9745 26.7036C48.1394 26.6374 48.2896 26.5394 48.4166 26.4151C48.5436 26.2908 48.6449 26.1427 48.7147 25.9793C48.7845 25.8159 48.8214 25.6403 48.8234 25.4626C48.8253 25.2849 48.7922 25.1086 48.726 24.9437C48.6598 24.7788 48.5618 24.6285 48.4375 24.5015C45.5303 21.6138 41.5976 19.9952 37.5 20ZM37.5 25.3846C36.28 25.3812 35.0728 25.634 33.9567 26.1268C32.8406 26.6196 31.8404 27.3413 31.021 28.2452C30.8828 28.3712 30.7724 28.5247 30.6968 28.6958C30.6212 28.8669 30.5821 29.0519 30.582 29.2389C30.5819 29.426 30.6208 29.611 30.6962 29.7822C30.7715 29.9534 30.8818 30.107 31.0198 30.2332C31.1579 30.3594 31.3207 30.4555 31.498 30.5153C31.6752 30.575 31.8629 30.5972 32.0492 30.5804C32.2355 30.5636 32.4163 30.5081 32.5799 30.4176C32.7436 30.327 32.8866 30.2033 32.9998 30.0544C33.5691 29.4274 34.264 28.9273 35.0394 28.5866C35.8147 28.2459 36.6531 28.0722 37.5 28.0769C39.2863 28.0769 40.8896 28.8281 42.0015 30.0544C42.1142 30.2048 42.2571 30.33 42.4211 30.4218C42.5851 30.5137 42.7664 30.5702 42.9536 30.5877C43.1407 30.6052 43.3294 30.5833 43.5075 30.5235C43.6857 30.4636 43.8494 30.3672 43.988 30.2403C44.1266 30.1134 44.2371 29.9588 44.3124 29.7866C44.3877 29.6144 44.4261 29.4284 44.4251 29.2404C44.4241 29.0525 44.3838 28.8669 44.3068 28.6954C44.2297 28.524 44.1176 28.3706 43.9777 28.2452C43.1581 27.3419 42.1581 26.6205 41.0423 26.1278C39.9265 25.6351 38.7197 25.3819 37.5 25.3846ZM26.7308 29.4231V50.9615C26.7308 52.0326 27.1562 53.0598 27.9136 53.8171C28.671 54.5745 29.6982 55 30.7692 55H44.2308C45.3018 55 46.329 54.5745 47.0864 53.8171C47.8437 53.0598 48.2692 52.0326 48.2692 50.9615V29.4231L45.5769 32.1154V47.5961C45.5769 47.7747 45.506 47.9459 45.3798 48.0721C45.2536 48.1983 45.0824 48.2692 44.9038 48.2692H30.0961C29.9176 48.2692 29.7464 48.1983 29.6202 48.0721C29.494 47.9459 29.4231 47.7747 29.4231 47.5961V32.1154L26.7308 29.4231ZM37.5 30.7692C36.0085 30.7692 34.8077 31.9713 34.8077 33.4615C34.8077 34.9517 36.0085 36.1538 37.5 36.1538C38.214 36.1538 38.8988 35.8702 39.4037 35.3653C39.9086 34.8604 40.1923 34.1756 40.1923 33.4615C40.1923 32.7475 39.9086 32.0627 39.4037 31.5578C38.8988 31.0529 38.214 30.7692 37.5 30.7692ZM38.1731 49.9102C39.1235 49.9102 39.8975 50.6842 39.8975 51.6346C39.8975 52.585 39.1235 53.359 38.1731 53.359C37.7159 53.3583 37.2777 53.1764 36.9545 52.8532C36.6313 52.5299 36.4494 52.0917 36.4486 51.6346C36.4486 50.6842 37.2227 49.9102 38.1731 49.9102Z" fill="#6AAC15"/>
</g>
<defs>
<clipPath id="clip0_3_243">
<rect width="35" height="35" fill="white" transform="translate(20 20)"/>
</clipPath>
</defs>
</svg>
