<svg width="75" height="75" viewBox="0 0 75 75" fill="none" xmlns="http://www.w3.org/2000/svg">
<circle cx="37.5" cy="37.5" r="37.5" fill="#D8EAFF"/>
<path d="M32.9339 36.5868C34.3974 35.1233 36.9497 35.1233 38.4132 36.5868L39.3264 37.5L41.1528 35.6736L40.2396 34.7604C39.0216 33.541 37.3992 32.8681 35.6736 32.8681C33.9479 32.8681 32.3256 33.541 31.1075 34.7604L28.3666 37.5C27.158 38.7125 26.4793 40.3547 26.4793 42.0667C26.4793 43.7787 27.158 45.4209 28.3666 46.6334C28.9658 47.2334 29.6776 47.7091 30.4612 48.0332C31.2448 48.3573 32.0847 48.5233 32.9326 48.5218C33.7808 48.5235 34.621 48.3576 35.4048 48.0335C36.1887 47.7094 36.9007 47.2336 37.5 46.6334L38.4132 45.7202L36.5868 43.8937L35.6736 44.8069C34.9457 45.5316 33.9604 45.9384 32.9333 45.9384C31.9062 45.9384 30.9209 45.5316 30.193 44.8069C29.4677 44.0794 29.0605 43.094 29.0605 42.0667C29.0605 41.0394 29.4677 40.054 30.193 39.3264L32.9339 36.5868Z" fill="#0F7DFF"/>
<path d="M37.5 28.3666L36.5868 29.2798L38.4132 31.1063L39.3264 30.193C40.0543 29.4684 41.0396 29.0616 42.0667 29.0616C43.0938 29.0616 44.0791 29.4684 44.807 30.193C45.5322 30.9206 45.9395 31.906 45.9395 32.9333C45.9395 33.9606 45.5322 34.946 44.807 35.6736L42.066 38.4132C40.6026 39.8767 38.0503 39.8767 36.5868 38.4132L35.6736 37.5L33.8472 39.3264L34.7604 40.2396C35.9784 41.459 37.6008 42.1319 39.3264 42.1319C41.0521 42.1319 42.6744 41.459 43.8925 40.2396L46.6334 37.5C47.842 36.2875 48.5207 34.6453 48.5207 32.9333C48.5207 31.2213 47.842 29.5791 46.6334 28.3666C45.4212 27.1574 43.7789 26.4783 42.0667 26.4783C40.3545 26.4783 38.7122 27.1574 37.5 28.3666Z" fill="#0F7DFF"/>
</svg>
