<svg width="75" height="75" viewBox="0 0 75 75" fill="none" xmlns="http://www.w3.org/2000/svg">
<circle cx="37.5" cy="37.5" r="37.5" fill="#E2D8FF"/>
<path d="M36 43.3333C36 42.2288 36.8954 41.3333 38 41.3333C39.1045 41.3333 40 42.2288 40 43.3333C40 44.4379 39.1045 45.3333 38 45.3333C36.8954 45.3333 36 44.4379 36 43.3333Z" fill="#7647FF"/>
<path fill-rule="evenodd" clip-rule="evenodd" d="M32.1622 36.1295L31.7416 32.3442C31.6877 31.8589 31.6877 31.3691 31.7416 30.8838L31.7719 30.6106C32.0939 27.7128 34.372 25.4199 37.2678 25.0792C37.7542 25.022 38.2457 25.022 38.7321 25.0792C41.6278 25.4199 43.9059 27.7128 44.2279 30.6106L44.2583 30.8838C44.3122 31.3691 44.3122 31.8589 44.2583 32.3442L43.8377 36.1295L44.7532 36.2026C46.1968 36.3179 47.3756 37.4031 47.6096 38.8323C48.0977 41.8131 48.0977 44.8535 47.6096 47.8344C47.3756 49.2636 46.1968 50.3488 44.7532 50.4641L42.7583 50.6233C39.5911 50.8762 36.4088 50.8762 33.2417 50.6233L31.2468 50.4641C29.8032 50.3488 28.6244 49.2636 28.3904 47.8344C27.9023 44.8535 27.9023 41.8131 28.3904 38.8323C28.6244 37.4031 29.8032 36.3179 31.2468 36.2026L32.1622 36.1295ZM37.5014 27.0655C37.8326 27.0266 38.1672 27.0266 38.4984 27.0655C40.4699 27.2975 42.0209 28.8585 42.2402 30.8315L42.2705 31.1047C42.3081 31.4432 42.3081 31.7849 42.2705 32.1234L41.8423 35.9773C39.2834 35.8125 36.7165 35.8125 34.1576 35.9773L33.7293 32.1234C33.6917 31.7849 33.6917 31.4432 33.7293 31.1047L33.7597 30.8315C33.9789 28.8585 35.5299 27.2975 37.5014 27.0655ZM42.5992 38.037C39.5379 37.7926 36.4621 37.7926 33.4008 38.037L31.406 38.1963C30.8794 38.2383 30.4494 38.6341 30.3641 39.1554C29.911 41.9223 29.911 44.7444 30.3641 47.5112C30.4494 48.0325 30.8794 48.4284 31.406 48.4704L33.4008 48.6297C36.4621 48.874 39.5379 48.874 42.5992 48.6297L44.594 48.4704C45.1206 48.4284 45.5506 48.0325 45.6359 47.5112C46.089 44.7444 46.089 41.9223 45.6359 39.1554C45.5506 38.6341 45.1206 38.2383 44.594 38.1963L42.5992 38.037Z" fill="#7647FF"/>
</svg>
