<svg width="41" height="37" viewBox="0 0 41 37" fill="none" xmlns="http://www.w3.org/2000/svg">
<path d="M36.75 36.75C37.8274 36.75 38.8608 36.322 39.6226 35.5601C40.3845 34.7983 40.8125 33.7649 40.8125 32.6875V22.7669C40.8125 21.6894 40.3845 20.6561 39.6226 19.8943C38.8608 19.1324 37.8274 18.7044 36.75 18.7044H31.1113C31.1113 17.2784 31.1966 15.8484 31.3631 14.4225C31.615 12.9113 32.0375 11.5666 32.6225 10.3925C33.2116 9.21438 33.9672 8.29219 34.8934 7.61781C35.8156 6.86219 36.9897 6.48438 38.4197 6.48438V0.1875C36.0675 0.1875 34.0119 0.69125 32.2447 1.69875C30.4929 2.69604 28.9867 4.07309 27.8369 5.72875C26.6828 7.55409 25.8322 9.55439 25.3181 11.6519C24.8001 13.9665 24.5466 16.3325 24.5625 18.7044V32.6875C24.5625 33.7649 24.9905 34.7983 25.7524 35.5601C26.5142 36.322 27.5476 36.75 28.625 36.75H36.75ZM12.375 36.75C13.4524 36.75 14.4858 36.322 15.2476 35.5601C16.0095 34.7983 16.4375 33.7649 16.4375 32.6875V22.7669C16.4375 21.6894 16.0095 20.6561 15.2476 19.8943C14.4858 19.1324 13.4524 18.7044 12.375 18.7044H6.73625C6.73625 17.2784 6.82156 15.8484 6.98813 14.4225C7.24 12.9113 7.6625 11.5666 8.2475 10.3925C8.83657 9.21438 9.59219 8.29219 10.5184 7.61781C11.4406 6.86219 12.6147 6.48438 14.0447 6.48438V0.1875C11.6925 0.1875 9.63688 0.69125 7.86969 1.69875C6.11788 2.69604 4.61174 4.07309 3.46188 5.72875C2.30782 7.55409 1.45721 9.55439 0.943128 11.6519C0.425102 13.9665 0.171602 16.3325 0.187502 18.7044V32.6875C0.187502 33.7649 0.615514 34.7983 1.37738 35.5601C2.13925 36.322 3.17256 36.75 4.25 36.75H12.375Z" fill="#DEDEDE"/>
</svg>
