<svg width="41" height="37" viewBox="0 0 41 37" fill="none" xmlns="http://www.w3.org/2000/svg">
<path d="M4.25003 0.249997C3.17259 0.249997 2.13928 0.678009 1.37741 1.43988C0.615543 2.20174 0.18753 3.23505 0.18753 4.3125L0.187529 14.2331C0.187529 15.3106 0.615541 16.3439 1.37741 17.1057C2.13928 17.8676 3.17259 18.2956 4.25003 18.2956L9.88878 18.2956C9.88878 19.7216 9.80347 21.1516 9.63691 22.5775C9.38503 24.0887 8.96253 25.4334 8.37753 26.6075C7.78847 27.7856 7.03284 28.7078 6.10659 29.3822C5.1844 30.1378 4.01034 30.5156 2.58034 30.5156L2.58034 36.8125C4.93253 36.8125 6.98816 36.3087 8.75534 35.3012C10.5071 34.304 12.0133 32.9269 13.1632 31.2712C14.3172 29.4459 15.1678 27.4456 15.6819 25.3481C16.1999 23.0335 16.4534 20.6675 16.4375 18.2956L16.4375 4.3125C16.4375 3.23506 16.0095 2.20175 15.2477 1.43988C14.4858 0.678011 13.4525 0.249998 12.375 0.249998L4.25003 0.249997ZM28.625 0.249999C27.5476 0.249999 26.5143 0.678012 25.7524 1.43988C24.9905 2.20175 24.5625 3.23506 24.5625 4.3125L24.5625 14.2331C24.5625 15.3106 24.9905 16.3439 25.7524 17.1057C26.5143 17.8676 27.5476 18.2956 28.625 18.2956L34.2638 18.2956C34.2638 19.7216 34.1785 21.1516 34.0119 22.5775C33.76 24.0887 33.3375 25.4334 32.7525 26.6075C32.1635 27.7856 31.4078 28.7078 30.4816 29.3822C29.5594 30.1378 28.3853 30.5156 26.9553 30.5156L26.9553 36.8125C29.3075 36.8125 31.3632 36.3087 33.1303 35.3012C34.8821 34.304 36.3883 32.9269 37.5382 31.2713C38.6922 29.4459 39.5428 27.4456 40.0569 25.3481C40.5749 23.0335 40.8284 20.6675 40.8125 18.2956L40.8125 4.3125C40.8125 3.23506 40.3845 2.20175 39.6227 1.43988C38.8608 0.678013 37.8275 0.25 36.75 0.25L28.625 0.249999Z" fill="#DEDEDE"/>
</svg>
